<?xml version="1.0" encoding="utf-8"?>
<!-- Generator: Adobe Illustrator 26.0.1, SVG Export Plug-In . SVG Version: 6.00 Build 0)  -->
<svg version="1.1" id="レイヤー_1" xmlns="http://www.w3.org/2000/svg" xmlns:xlink="http://www.w3.org/1999/xlink" x="0px"
	 y="0px" viewBox="0 0 510.24 226.77" style="enable-background:new 0 0 510.24 226.77;" xml:space="preserve">
<style type="text/css">
	.st0{fill:#C30D23;stroke:#000000;stroke-width:3;stroke-miterlimit:10;}
	.st1{fill:none;}
</style>
<g>
	<path class="st0" d="M148.57,24.19c5.05,1.94,7.6,5.07,7.64,9.41c0,0.07-0.01,0.14-0.02,0.22c-1.28,7.3-3.18,17.25-5.7,29.84
		c-0.01,0.06-0.02,0.12-0.02,0.17c-0.01,1.24-0.14,2.37-0.41,3.41c-0.19,0.75,0.53,1.42,1.32,1.26c4.18-0.84,7.65-1.68,10.42-2.52
		c0.09-0.03,0.18-0.04,0.28-0.05c7.53-0.44,13.81,1.48,18.86,5.78c0.07,0.06,0.13,0.13,0.19,0.2c1.84,2.39,2.12,4.06,0.87,5.02
		c-1.91,1.47-6.38,3.18-13.38,5.13c-7.38,1.89-13.29,4-17.69,6.34c-0.3,0.16-0.5,0.44-0.56,0.76c-0.58,3.28-0.86,6.77-0.86,10.48
		v7.68c0,0.61,0.53,1.09,1.17,1.06c11.04-0.45,21.47-0.68,31.32-0.68c9.56,0,17.51,1.22,23.89,3.66c6.36,2.45,9.56,6.11,9.56,10.99
		c0,2.9-2.81,4.85-8.42,5.83c-0.12,0.02-0.24,0.02-0.36,0.01c-22.94-2.85-41.35-4.53-55.21-5.07c-0.57-0.02-1.06,0.38-1.14,0.92
		c-1.81,11.35-2.71,21.78-2.71,31.27c0,10.65-1.57,21.05-4.69,31.22c-0.06,0.18-0.16,0.35-0.31,0.49c-2.37,2.2-4.45,3.12-6.26,2.77
		c-0.14-0.03-0.27-0.08-0.39-0.15c-4.35-2.53-6.84-9.33-7.46-20.4c-1.26-11.99-1.89-26.81-1.91-44.47c0-0.53-0.41-0.99-0.96-1.06
		l-4.69-0.6c-0.05-0.01-0.11-0.01-0.16-0.01c-5.71,0-12.06,0.5-19.03,1.47c-7.02,0.98-14.33,2.45-21.98,4.4
		c-14.02,3.91-24.84,5.62-32.49,5.13l-9.15-0.7c-0.26-0.02-0.52-0.13-0.71-0.31c-2.79-2.64-4.56-5.48-5.28-8.52
		c-0.1-0.43,0.1-0.89,0.5-1.12c4.7-2.7,14.31-4.51,28.8-5.45c0.11-0.01,0.23-0.03,0.34-0.07l13.22-5.07
		c13.34-5.35,23.5-9.25,30.51-11.7c0.04-0.01,0.08-0.03,0.12-0.05c6.94-3.38,12.64-6.54,17.08-9.45c0.04-0.03,0.08-0.05,0.12-0.07
		c1.45-0.67,2.63-1.34,3.54-2.01c0.92-0.68,0.29-2.08-0.85-1.91c-18.29,2.78-32.27,5.56-41.93,8.34c-9.4,2.88-17.28,4.35-23.59,4.39
		c-0.2,0-0.39-0.04-0.57-0.14c-3.72-1.98-7.14-5.59-10.24-10.85c-1.28-1.95-1.28-3.9,0-5.86l11.47-17.58
		c5.03-7.71,8.51-12.57,10.44-14.57c0.05-0.05,0.09-0.11,0.13-0.17c1.87-2.9,2.81-5.8,2.81-8.7c0-1.95,1.27-1.95,3.82,0
		c7,3.91,10.51,7.82,10.51,11.72c0,4.39-1.6,9.28-4.78,14.65c-2.33,3.57-4.39,7.34-6.18,11.31c-0.27,0.6,0.08,1.29,0.74,1.46
		l1.38,0.35c0.16,0.04,0.32,0.05,0.49,0.02c16.8-2.87,32.69-5.96,47.67-9.3c0.49-0.11,0.84-0.52,0.86-1
		c0.59-12.19,0.9-24.16,0.92-35.9c0-0.39-0.22-0.75-0.58-0.94c-1.72-0.9-3.9-2.16-6.52-3.76c-0.33-0.2-0.55-0.57-0.53-0.95
		c0.2-4.01,2.35-6.94,6.46-8.81c0.14-0.06,0.3-0.1,0.45-0.11C136.9,20.8,143.51,21.78,148.57,24.19z M92.73,110.73
		c9.08-1,17.34-1.53,24.8-1.57c0.61,0,1.1-0.48,1.1-1.06v-6.89c0-0.75-0.79-1.26-1.52-0.98c-8.29,3.17-16.57,5.98-24.85,8.45
		C90.97,109.05,91.39,110.88,92.73,110.73z"/>
	<path class="st0" d="M302.37,103.67c1.13,0.96,0.8,2.14-0.98,3.55c-0.11,0.09-0.25,0.16-0.39,0.2
		c-11.03,3.27-21.01,5.87-29.94,7.79c-0.67,0.14-1.03,0.85-0.79,1.49c3.18,8.41,4.76,16.38,4.76,23.89c0,3.44-0.97,8.6-2.89,15.46
		c-0.01,0.03-0.02,0.07-0.03,0.1c-1.04,2.64-2.07,5.87-3.11,9.69c-0.19,0.69,0.31,1.38,1.02,1.42l39.72,2.13
		c0.14,0.01,0.27,0.04,0.4,0.09c5.72,2.47,9.92,6.13,12.6,11c2.03,3.44,3.17,5.93,3.43,7.49c0.06,0.38-0.08,0.77-0.36,1.02
		c-2.99,2.63-6.5,3.5-10.52,2.59c-0.07-0.02-0.15-0.04-0.22-0.07c-8.09-3.42-13.87-5.87-17.35-7.34
		c-4.65-1.96-13.19-2.96-25.59-2.96c-12.8,0.5-20.56,1.48-23.27,2.96c-3.1,1.47-8.3,2.94-15.62,4.41c-0.05,0.01-0.11,0.02-0.17,0.02
		c-5.81,0.46-13.93-2.49-24.35-8.87c-1.16-1.48-0.97-2.22,0.58-2.22l5,0.71c0.15,0.02,0.31,0.01,0.46-0.03
		c13.27-3.84,23.94-6.26,31.99-7.28c0.23-0.03,0.45-0.13,0.62-0.29c7.97-7.41,12.34-19.63,13.11-36.69c0-7.56-0.9-12.87-2.69-15.89
		c-0.14-0.24-0.37-0.4-0.63-0.48c-7.95-2.41-15.71-5.06-23.29-7.94c-0.1-0.04-0.2-0.09-0.28-0.16c-3.78-2.88-6.81-5.04-9.11-6.5
		c-0.05-0.03-0.1-0.05-0.15-0.08c-2.26-0.97-2.62-1.94-1.08-2.92c8.48,0,16.01,0.25,22.58,0.73c0.07,0.01,0.14,0,0.21,0
		c16.62-1.96,30.55-3.93,41.78-5.9C292.86,93.83,297.72,96.78,302.37,103.67z"/>
	<path class="st0" d="M405.08,82.26c4.52,2,6.82,4.98,6.88,8.95c0,0.12-0.01,0.23-0.05,0.34c-0.94,3.08-2.75,8.76-5.45,17.04
		c-0.01,0.02-0.02,0.05-0.03,0.07l-1.4,3.43c-0.31,0.76,0.35,1.58,1.19,1.45c1.05-0.16,2.27-0.45,3.66-0.86
		c2.25-0.66,4.07-2.63,5.44-5.91c0.05-0.11,0.1-0.23,0.2-0.31c0.73-0.62,3.6-1.24,8.6-1.87c0.14-0.02,0.29-0.01,0.43,0.02
		c2.72,0.67,6.09,1.5,10.12,2.48c7.13,1.65,11.23,3.77,12.3,6.36c0.06,0.15,0.09,0.31,0.08,0.47c-0.15,2.25-2.45,4.03-6.88,5.33
		c-12.39,3.38-21.58,5.75-27.53,7.1c-5.36,1.32-10.3,2.47-14.79,3.47c-0.23,0.05-0.44,0.18-0.6,0.35
		c-9.99,11.36-18.17,19.72-24.54,25.08c-5.06,4.4-11.25,8.45-18.59,12.17c-4.59,2.71-9.87,4.06-15.83,4.06
		c-8.58,0.32-13.95-1.87-16.11-6.58c-0.35-0.76,0.28-1.6,1.14-1.51c0.52,0.05,1.15,0.21,1.89,0.49c3.21,1.01,5.04,1.35,5.51,1.01
		c11-3.04,20.39-8.1,28.19-15.19c0.02-0.02,0.04-0.04,0.06-0.06c6.37-6.45,10.66-11.38,12.88-14.78c0.42-0.65,0.04-1.5-0.74-1.62
		c-6.95-1.1-14.89-5.24-23.81-12.43c-0.04-0.03-0.09-0.07-0.14-0.09c-1.76-0.99-1.74-1.48,0.08-1.48c1.36,0,3.41,0.33,6.12,1
		c0.05,0.01,0.1,0.02,0.14,0.03c2.73,0.33,5.46,0.5,8.19,0.5c5.39,0,12.3-0.8,20.77-2.43c0.35-0.07,0.66-0.3,0.81-0.61l5.9-12.57
		c0.04-0.08,0.06-0.16,0.08-0.24l0.63-3.26c0.02-0.11,0.03-0.22,0.01-0.33c-0.47-3.97-1.61-7.61-3.39-10.93
		c-0.02-0.04-0.04-0.07-0.07-0.11c-2.28-3.35-3.41-5.87-3.41-7.55l0.69-0.51c5.04-1.01,9.17-2.03,12.39-3.04
		C397.51,78.89,400.49,79.9,405.08,82.26z M404.39,144.13c17.43,1.7,31.2,5.92,41.3,12.68c9.49,6.33,15.41,12.48,17.79,18.48
		c0.07,0.19,0.09,0.39,0.05,0.59l-0.52,2.69c-0.07,0.35-0.31,0.65-0.66,0.79c-2.12,0.86-4.23,1.29-6.34,1.29h-1.38
		c-2.75,0-8.26-1.7-16.52-5.07c-4.7-1.92-8.06-3.46-10.08-4.62c-0.97-0.55-0.54-1.98,0.58-1.98h7.17c0.63,0,1.15-0.51,1.12-1.11
		c-0.05-0.9-0.56-1.71-1.54-2.44c-10.2-6.31-20.76-12.75-31.68-19.33C402.68,145.49,403.22,144,404.39,144.13L404.39,144.13z"/>
</g>
<rect x="330.01" y="-241.89" class="st1" width="122.47" height="433.83"/>
<polyline class="st1" points="320.48,422.44 320.48,555.44 -185.52,555.44 -185.52,422.44 "/>
</svg>
